# xmcd
#
# Track frame offsets:
#	150
#	9719
#	21320
#	30058
#	41046
#	50206
#	58822
#	69510
#	80704
#	88833
#	99249
#	108156
#	118918
#	129946
#	138927
#	148061
#	160645
#	170683
#	184292
#	192663
#
# Disc length: 2732 seconds
#
# Revision: 0
# Processed by: cddbd v1.5.2PL0 Copyright (c) Steve Scherf et al.
# Submitted via: EZCDAudioConverter 3.1.7.1
#
DISCID=1e0aaa14
DTITLE=Cash, Johnny - The Man in Black 60 Original Recordings
DYEAR=2015
DGENRE=Country
TTITLE0=It was Jesus
TTITLE1=I saw a man
TTITLE2=Are all the children in
TTITLE3=The old account
TTITLE4=Lead me gently home
TTITLE5=Swing low, sweet chariot
TTITLE6=Snow in his hair
TTITLE7=Lead me, father
TTITLE8=I called him
TTITLE9=These things shall pass
TTITLE10=He'll be a friend
TTITLE11=God will
TTITLE12=He'll understand and say well done
TTITLE13=My God is real (Yes, God is real)
TTITLE14=I got shoes
TTITLE15=When I've learned enough to die
TTITLE16=Let the lower lights be burning
TTITLE17=If we never meet again
TTITLE18=Taller than trees
TTITLE19=That's enough
EXTD=
EXTT0=
EXTT1=
EXTT2=
EXTT3=
EXTT4=
EXTT5=
EXTT6=
EXTT7=
EXTT8=
EXTT9=
EXTT10=
EXTT11=
EXTT12=
EXTT13=
EXTT14=
EXTT15=
EXTT16=
EXTT17=
EXTT18=
EXTT19=
PLAYORDER=
